<mxfile host="app.diagrams.net" agent="Mozilla/5.0 (Windows NT 10.0; Win64; x64) AppleWebKit/537.36 (KHTML, like Gecko) Chrome/109.0.0.0 Safari/537.36" version="26.0.16">
  <diagram name="Página-1" id="Lhb8NCIR1K9SaQn6aJ-y">
    <mxGraphModel dx="1560" dy="366" grid="1" gridSize="10" guides="1" tooltips="1" connect="1" arrows="1" fold="1" page="1" pageScale="1" pageWidth="827" pageHeight="1169" math="0" shadow="0">
      <root>
        <mxCell id="0" />
        <mxCell id="1" parent="0" />
        <mxCell id="j1P8jpvM9PtT3ETzza-0-15" style="edgeStyle=orthogonalEdgeStyle;rounded=0;orthogonalLoop=1;jettySize=auto;html=1;exitX=0.5;exitY=1;exitDx=0;exitDy=0;exitPerimeter=0;entryX=0.5;entryY=0;entryDx=0;entryDy=0;strokeColor=#A8201A;fontColor=#143642;fillColor=#FAE5C7;" edge="1" parent="1" source="j1P8jpvM9PtT3ETzza-0-1" target="j1P8jpvM9PtT3ETzza-0-2">
          <mxGeometry relative="1" as="geometry" />
        </mxCell>
        <mxCell id="j1P8jpvM9PtT3ETzza-0-1" value="inicio" style="strokeWidth=2;html=1;shape=mxgraph.flowchart.start_1;whiteSpace=wrap;labelBackgroundColor=none;fillColor=#FAE5C7;strokeColor=#0F8B8D;fontColor=#143642;" vertex="1" parent="1">
          <mxGeometry x="364" y="20" width="100" height="60" as="geometry" />
        </mxCell>
        <mxCell id="j1P8jpvM9PtT3ETzza-0-16" style="edgeStyle=orthogonalEdgeStyle;rounded=0;orthogonalLoop=1;jettySize=auto;html=1;entryX=0.5;entryY=0;entryDx=0;entryDy=0;strokeColor=#A8201A;fontColor=#143642;fillColor=#FAE5C7;" edge="1" parent="1" source="j1P8jpvM9PtT3ETzza-0-2" target="j1P8jpvM9PtT3ETzza-0-3">
          <mxGeometry relative="1" as="geometry" />
        </mxCell>
        <mxCell id="j1P8jpvM9PtT3ETzza-0-2" value="Pegar&amp;nbsp;&lt;br&gt;ingredientes&amp;nbsp;" style="shape=parallelogram;html=1;strokeWidth=2;perimeter=parallelogramPerimeter;whiteSpace=wrap;rounded=1;arcSize=12;size=0.23;labelBackgroundColor=none;fillColor=#FAE5C7;strokeColor=#0F8B8D;fontColor=#143642;" vertex="1" parent="1">
          <mxGeometry x="351" y="100" width="126" height="70" as="geometry" />
        </mxCell>
        <mxCell id="j1P8jpvM9PtT3ETzza-0-17" style="edgeStyle=orthogonalEdgeStyle;rounded=0;orthogonalLoop=1;jettySize=auto;html=1;entryX=0.5;entryY=0;entryDx=0;entryDy=0;strokeColor=#A8201A;fontColor=#143642;fillColor=#FAE5C7;" edge="1" parent="1" source="j1P8jpvM9PtT3ETzza-0-3" target="j1P8jpvM9PtT3ETzza-0-4">
          <mxGeometry relative="1" as="geometry" />
        </mxCell>
        <mxCell id="j1P8jpvM9PtT3ETzza-0-3" value="Ingredientes&lt;div&gt;solidos&lt;br&gt;Farinha&lt;br&gt;Cenoura ralada e Fermento&lt;br&gt;&lt;/div&gt;" style="shape=parallelogram;html=1;strokeWidth=2;perimeter=parallelogramPerimeter;whiteSpace=wrap;rounded=1;arcSize=12;size=0.23;labelBackgroundColor=none;fillColor=#FAE5C7;strokeColor=#0F8B8D;fontColor=#143642;" vertex="1" parent="1">
          <mxGeometry x="291" y="200" width="246" height="80" as="geometry" />
        </mxCell>
        <mxCell id="j1P8jpvM9PtT3ETzza-0-4" value="&lt;font style=&quot;font-size: 14px;&quot;&gt;Ingredientes&amp;nbsp;&lt;br&gt;liquidos&lt;br&gt;Leite, Ovo&lt;/font&gt;&lt;div&gt;&lt;br&gt;&lt;/div&gt;" style="shape=parallelogram;html=1;strokeWidth=2;perimeter=parallelogramPerimeter;whiteSpace=wrap;rounded=1;arcSize=12;size=0.23;labelBackgroundColor=none;fillColor=#FAE5C7;strokeColor=#0F8B8D;fontColor=#143642;" vertex="1" parent="1">
          <mxGeometry x="309" y="320" width="210" height="80" as="geometry" />
        </mxCell>
        <mxCell id="j1P8jpvM9PtT3ETzza-0-6" value="" style="shape=parallelogram;html=1;strokeWidth=2;perimeter=parallelogramPerimeter;whiteSpace=wrap;rounded=1;arcSize=12;size=0.23;labelBackgroundColor=none;fillColor=#FAE5C7;strokeColor=#0F8B8D;fontColor=#143642;" vertex="1" parent="1">
          <mxGeometry x="-80" y="420" width="219" height="80" as="geometry" />
        </mxCell>
        <mxCell id="j1P8jpvM9PtT3ETzza-0-8" style="edgeStyle=orthogonalEdgeStyle;rounded=0;orthogonalLoop=1;jettySize=auto;html=1;strokeColor=#A8201A;fontColor=#143642;fillColor=#FAE5C7;" edge="1" parent="1" source="j1P8jpvM9PtT3ETzza-0-7">
          <mxGeometry relative="1" as="geometry">
            <mxPoint x="640" y="620" as="targetPoint" />
            <Array as="points">
              <mxPoint x="552" y="490" />
              <mxPoint x="552" y="491" />
            </Array>
          </mxGeometry>
        </mxCell>
        <mxCell id="j1P8jpvM9PtT3ETzza-0-9" value="Não" style="edgeLabel;html=1;align=center;verticalAlign=middle;resizable=0;points=[];strokeColor=#0F8B8D;fontColor=#143642;fillColor=#FAE5C7;" vertex="1" connectable="0" parent="j1P8jpvM9PtT3ETzza-0-8">
          <mxGeometry x="-0.2861" relative="1" as="geometry">
            <mxPoint as="offset" />
          </mxGeometry>
        </mxCell>
        <mxCell id="j1P8jpvM9PtT3ETzza-0-11" style="edgeStyle=orthogonalEdgeStyle;rounded=0;orthogonalLoop=1;jettySize=auto;html=1;strokeColor=#A8201A;fontColor=#143642;fillColor=#FAE5C7;" edge="1" parent="1" target="j1P8jpvM9PtT3ETzza-0-2">
          <mxGeometry relative="1" as="geometry">
            <mxPoint x="210" y="110" as="targetPoint" />
            <mxPoint x="354" y="490" as="sourcePoint" />
            <Array as="points">
              <mxPoint x="282" y="490" />
              <mxPoint x="282" y="491" />
              <mxPoint x="210" y="491" />
              <mxPoint x="210" y="135" />
            </Array>
          </mxGeometry>
        </mxCell>
        <mxCell id="j1P8jpvM9PtT3ETzza-0-13" value="Sim" style="edgeLabel;html=1;align=center;verticalAlign=middle;resizable=0;points=[];strokeColor=#0F8B8D;fontColor=#143642;fillColor=#FAE5C7;" vertex="1" connectable="0" parent="j1P8jpvM9PtT3ETzza-0-11">
          <mxGeometry x="-0.6958" y="3" relative="1" as="geometry">
            <mxPoint as="offset" />
          </mxGeometry>
        </mxCell>
        <mxCell id="j1P8jpvM9PtT3ETzza-0-7" value="Falta algum&lt;br&gt;ingrediente?" style="strokeWidth=2;html=1;shape=mxgraph.flowchart.decision;whiteSpace=wrap;strokeColor=#0F8B8D;fontColor=#143642;fillColor=#FAE5C7;" vertex="1" parent="1">
          <mxGeometry x="364" y="440" width="100" height="100" as="geometry" />
        </mxCell>
        <mxCell id="j1P8jpvM9PtT3ETzza-0-20" style="edgeStyle=orthogonalEdgeStyle;rounded=0;orthogonalLoop=1;jettySize=auto;html=1;entryX=0.5;entryY=0;entryDx=0;entryDy=0;strokeColor=#A8201A;fontColor=#143642;fillColor=#FAE5C7;" edge="1" parent="1" source="j1P8jpvM9PtT3ETzza-0-10" target="j1P8jpvM9PtT3ETzza-0-19">
          <mxGeometry relative="1" as="geometry" />
        </mxCell>
        <mxCell id="j1P8jpvM9PtT3ETzza-0-10" value="Começar o&amp;nbsp;&lt;br&gt;bolo" style="shape=parallelogram;html=1;strokeWidth=2;perimeter=parallelogramPerimeter;whiteSpace=wrap;rounded=1;arcSize=12;size=0.23;strokeColor=#0F8B8D;fontColor=#143642;fillColor=#FAE5C7;" vertex="1" parent="1">
          <mxGeometry x="590" y="620" width="100" height="60" as="geometry" />
        </mxCell>
        <mxCell id="j1P8jpvM9PtT3ETzza-0-18" style="edgeStyle=orthogonalEdgeStyle;rounded=0;orthogonalLoop=1;jettySize=auto;html=1;entryX=0.5;entryY=0;entryDx=0;entryDy=0;entryPerimeter=0;strokeColor=#A8201A;fontColor=#143642;fillColor=#FAE5C7;" edge="1" parent="1" source="j1P8jpvM9PtT3ETzza-0-4" target="j1P8jpvM9PtT3ETzza-0-7">
          <mxGeometry relative="1" as="geometry" />
        </mxCell>
        <mxCell id="j1P8jpvM9PtT3ETzza-0-21" style="edgeStyle=orthogonalEdgeStyle;rounded=0;orthogonalLoop=1;jettySize=auto;html=1;strokeColor=#A8201A;fontColor=#143642;fillColor=#FAE5C7;" edge="1" parent="1" source="j1P8jpvM9PtT3ETzza-0-19">
          <mxGeometry relative="1" as="geometry">
            <mxPoint x="430" y="780" as="targetPoint" />
          </mxGeometry>
        </mxCell>
        <mxCell id="j1P8jpvM9PtT3ETzza-0-19" value="Pegar uma tijela" style="rounded=1;whiteSpace=wrap;html=1;absoluteArcSize=1;arcSize=14;strokeWidth=2;strokeColor=#0F8B8D;fontColor=#143642;fillColor=#FAE5C7;" vertex="1" parent="1">
          <mxGeometry x="587.5" y="740" width="105" height="80" as="geometry" />
        </mxCell>
        <mxCell id="j1P8jpvM9PtT3ETzza-0-23" style="edgeStyle=orthogonalEdgeStyle;rounded=0;orthogonalLoop=1;jettySize=auto;html=1;strokeColor=#A8201A;fontColor=#143642;fillColor=#FAE5C7;" edge="1" parent="1" source="j1P8jpvM9PtT3ETzza-0-22">
          <mxGeometry relative="1" as="geometry">
            <mxPoint x="240" y="890" as="targetPoint" />
            <Array as="points">
              <mxPoint x="280" y="780" />
              <mxPoint x="280" y="781" />
              <mxPoint x="240" y="781" />
            </Array>
          </mxGeometry>
        </mxCell>
        <mxCell id="j1P8jpvM9PtT3ETzza-0-22" value="Acrescentar os&lt;div&gt;ingredientes&lt;br&gt;solidos e liquidos&lt;/div&gt;" style="rounded=1;whiteSpace=wrap;html=1;absoluteArcSize=1;arcSize=14;strokeWidth=2;strokeColor=#0F8B8D;fontColor=#143642;fillColor=#FAE5C7;" vertex="1" parent="1">
          <mxGeometry x="330" y="730" width="100" height="100" as="geometry" />
        </mxCell>
        <mxCell id="j1P8jpvM9PtT3ETzza-0-25" style="edgeStyle=orthogonalEdgeStyle;rounded=0;orthogonalLoop=1;jettySize=auto;html=1;strokeColor=#A8201A;fontColor=#143642;fillColor=#FAE5C7;" edge="1" parent="1" source="j1P8jpvM9PtT3ETzza-0-24">
          <mxGeometry relative="1" as="geometry">
            <mxPoint x="390" y="940" as="targetPoint" />
          </mxGeometry>
        </mxCell>
        <mxCell id="j1P8jpvM9PtT3ETzza-0-24" value="Misturar bem todos os ingredientes" style="rounded=1;whiteSpace=wrap;html=1;absoluteArcSize=1;arcSize=14;strokeWidth=2;strokeColor=#0F8B8D;fontColor=#143642;fillColor=#FAE5C7;" vertex="1" parent="1">
          <mxGeometry x="180" y="890" width="120" height="100" as="geometry" />
        </mxCell>
        <mxCell id="j1P8jpvM9PtT3ETzza-0-27" style="edgeStyle=orthogonalEdgeStyle;rounded=0;orthogonalLoop=1;jettySize=auto;html=1;strokeColor=#A8201A;fontColor=#143642;fillColor=#FAE5C7;" edge="1" parent="1" source="j1P8jpvM9PtT3ETzza-0-26">
          <mxGeometry relative="1" as="geometry">
            <mxPoint x="590" y="940" as="targetPoint" />
          </mxGeometry>
        </mxCell>
        <mxCell id="j1P8jpvM9PtT3ETzza-0-26" value="Colocar a mistura em uma assadeira" style="rounded=1;whiteSpace=wrap;html=1;absoluteArcSize=1;arcSize=14;strokeWidth=2;strokeColor=#0F8B8D;fontColor=#143642;fillColor=#FAE5C7;" vertex="1" parent="1">
          <mxGeometry x="390" y="890" width="100" height="100" as="geometry" />
        </mxCell>
        <mxCell id="j1P8jpvM9PtT3ETzza-0-29" style="edgeStyle=orthogonalEdgeStyle;rounded=0;orthogonalLoop=1;jettySize=auto;html=1;strokeColor=#A8201A;fontColor=#143642;fillColor=#FAE5C7;" edge="1" parent="1" source="j1P8jpvM9PtT3ETzza-0-28">
          <mxGeometry relative="1" as="geometry">
            <mxPoint x="640" y="1060" as="targetPoint" />
          </mxGeometry>
        </mxCell>
        <mxCell id="j1P8jpvM9PtT3ETzza-0-28" value="Colocar no forno para assar&amp;nbsp;" style="rounded=1;whiteSpace=wrap;html=1;absoluteArcSize=1;arcSize=14;strokeWidth=2;strokeColor=#0F8B8D;fontColor=#143642;fillColor=#FAE5C7;" vertex="1" parent="1">
          <mxGeometry x="590" y="890" width="100" height="100" as="geometry" />
        </mxCell>
        <mxCell id="j1P8jpvM9PtT3ETzza-0-32" style="edgeStyle=orthogonalEdgeStyle;rounded=0;orthogonalLoop=1;jettySize=auto;html=1;strokeColor=#A8201A;fontColor=#143642;fillColor=#FAE5C7;" edge="1" parent="1" source="j1P8jpvM9PtT3ETzza-0-30">
          <mxGeometry relative="1" as="geometry">
            <mxPoint x="350" y="1120" as="targetPoint" />
          </mxGeometry>
        </mxCell>
        <mxCell id="j1P8jpvM9PtT3ETzza-0-33" value="Sim" style="edgeLabel;html=1;align=center;verticalAlign=middle;resizable=0;points=[];strokeColor=#0F8B8D;fontColor=#143642;fillColor=#FAE5C7;" vertex="1" connectable="0" parent="j1P8jpvM9PtT3ETzza-0-32">
          <mxGeometry x="-0.1584" y="2" relative="1" as="geometry">
            <mxPoint as="offset" />
          </mxGeometry>
        </mxCell>
        <mxCell id="j1P8jpvM9PtT3ETzza-0-37" style="edgeStyle=orthogonalEdgeStyle;rounded=0;orthogonalLoop=1;jettySize=auto;html=1;strokeColor=#A8201A;fontColor=#143642;fillColor=#FAE5C7;entryX=1;entryY=0.5;entryDx=0;entryDy=0;" edge="1" parent="1" source="j1P8jpvM9PtT3ETzza-0-30" target="j1P8jpvM9PtT3ETzza-0-28">
          <mxGeometry relative="1" as="geometry">
            <mxPoint x="860" y="940" as="targetPoint" />
            <Array as="points">
              <mxPoint x="860" y="1120" />
              <mxPoint x="860" y="940" />
            </Array>
          </mxGeometry>
        </mxCell>
        <mxCell id="j1P8jpvM9PtT3ETzza-0-39" value="Não" style="edgeLabel;html=1;align=center;verticalAlign=middle;resizable=0;points=[];strokeColor=#0F8B8D;fontColor=#143642;fillColor=#FAE5C7;" vertex="1" connectable="0" parent="j1P8jpvM9PtT3ETzza-0-37">
          <mxGeometry x="-0.6392" relative="1" as="geometry">
            <mxPoint as="offset" />
          </mxGeometry>
        </mxCell>
        <mxCell id="j1P8jpvM9PtT3ETzza-0-30" value="Está bem assado?" style="strokeWidth=2;html=1;shape=mxgraph.flowchart.decision;whiteSpace=wrap;strokeColor=#0F8B8D;fontColor=#143642;fillColor=#FAE5C7;" vertex="1" parent="1">
          <mxGeometry x="580" y="1060" width="120" height="120" as="geometry" />
        </mxCell>
        <mxCell id="j1P8jpvM9PtT3ETzza-0-35" style="edgeStyle=orthogonalEdgeStyle;rounded=0;orthogonalLoop=1;jettySize=auto;html=1;strokeColor=#A8201A;fontColor=#143642;fillColor=#FAE5C7;" edge="1" parent="1" source="j1P8jpvM9PtT3ETzza-0-34">
          <mxGeometry relative="1" as="geometry">
            <mxPoint x="130" y="1120" as="targetPoint" />
          </mxGeometry>
        </mxCell>
        <mxCell id="j1P8jpvM9PtT3ETzza-0-34" value="Retirar do forno, cortar e servir" style="rounded=1;whiteSpace=wrap;html=1;absoluteArcSize=1;arcSize=14;strokeWidth=2;strokeColor=#0F8B8D;fontColor=#143642;fillColor=#FAE5C7;" vertex="1" parent="1">
          <mxGeometry x="251" y="1070" width="100" height="100" as="geometry" />
        </mxCell>
        <mxCell id="j1P8jpvM9PtT3ETzza-0-36" value="FIM!" style="strokeWidth=2;html=1;shape=mxgraph.flowchart.start_1;whiteSpace=wrap;strokeColor=#0F8B8D;fontColor=#143642;fillColor=#FAE5C7;" vertex="1" parent="1">
          <mxGeometry x="30" y="1090" width="100" height="60" as="geometry" />
        </mxCell>
      </root>
    </mxGraphModel>
  </diagram>
</mxfile>
